<?xml version="1.0" standalone="no"?>
<!DOCTYPE svg PUBLIC "-//W3C//DTD SVG 20010904//EN"
 "http://www.w3.org/TR/2001/REC-SVG-20010904/DTD/svg10.dtd">
<svg version="1.0" xmlns="http://www.w3.org/2000/svg"
 width="450.000000pt" height="450.000000pt" viewBox="0 0 450.000000 450.000000"
 preserveAspectRatio="xMidYMid meet">
<metadata>
Created by potrace 1.14, written by Peter Selinger 2001-2017
</metadata>
<g transform="translate(0.000000,450.000000) scale(0.100000,-0.100000)"
fill="#000000" stroke="none">
<path d="M744 3916 c1 -16 -6 -22 -26 -24 -21 -2 -28 1 -28 13 0 9 -5 13 -10
10 -6 -4 -17 -2 -24 4 -16 14 -46 4 -46 -15 0 -7 -6 -11 -14 -8 -8 3 -17 1
-21 -5 -3 -6 -17 -8 -30 -5 -30 7 -39 -8 -14 -24 13 -8 19 -9 19 -1 0 21 34
-24 36 -49 4 -37 23 -52 30 -24 4 15 14 22 30 22 13 0 24 5 24 12 0 6 2 9 6 6
3 -3 20 -2 39 2 23 5 40 3 53 -6 17 -12 19 -10 20 18 0 21 -5 32 -17 35 -13 3
-17 11 -14 24 3 10 9 17 13 14 5 -3 11 -1 14 4 3 5 -5 11 -17 13 -18 4 -23 0
-23 -16z"/>
<path d="M540 3921 c0 -5 7 -15 17 -22 15 -13 15 -12 4 9 -12 23 -21 28 -21
13z"/>
<path d="M1104 3892 c3 -6 0 -13 -6 -15 -7 -3 -2 -6 10 -6 25 -1 26 19 2 27
-7 3 -10 0 -6 -6z"/>
<path d="M976 3855 c4 -8 11 -15 16 -15 6 0 5 6 -2 15 -7 8 -14 15 -16 15 -2
0 -1 -7 2 -15z"/>
<path d="M945 3850 c3 -5 8 -10 11 -10 2 0 4 5 4 10 0 6 -5 10 -11 10 -5 0 -7
-4 -4 -10z"/>
<path d="M802 3790 c0 -14 2 -19 5 -12 2 6 2 18 0 25 -3 6 -5 1 -5 -13z"/>
<path d="M1010 3786 c0 -10 4 -15 9 -12 5 4 12 0 14 -6 4 -8 6 -9 6 -2 1 6 -6
17 -14 24 -12 10 -15 9 -15 -4z"/>
<path d="M1823 3785 c-8 -8 -9 -16 -4 -20 6 -3 13 1 18 8 4 8 15 17 23 20 11
4 9 6 -5 6 -11 0 -26 -6 -32 -14z"/>
<path d="M1841 3756 c-29 -31 -28 -52 1 -32 25 18 42 21 33 6 -3 -5 -1 -10 4
-10 6 0 11 6 11 13 0 9 3 8 9 -2 5 -7 11 -9 14 -4 7 11 -13 37 -34 45 -11 4
-25 -2 -38 -16z"/>
<path d="M770 3760 c-9 -6 -10 -10 -3 -10 6 0 15 5 18 10 8 12 4 12 -15 0z"/>
<path d="M765 3742 c-16 -2 -34 -8 -40 -14 -7 -6 3 -7 30 -2 59 10 66 23 10
16z"/>
<path d="M1275 3740 c-3 -6 1 -7 9 -4 18 7 21 14 7 14 -6 0 -13 -4 -16 -10z"/>
<path d="M961 3728 c9 -7 14 -19 12 -25 -3 -8 4 -13 16 -13 11 0 23 -4 26 -10
3 -5 0 -10 -8 -10 -10 0 -12 -9 -9 -31 4 -24 2 -30 -8 -24 -10 6 -11 1 -6 -20
l7 -27 -36 22 c-39 24 -43 21 -19 -16 17 -25 17 -25 -11 -20 -15 3 -30 7 -33
10 -2 3 -14 1 -24 -5 -16 -9 -24 -7 -37 5 -14 15 -14 18 -1 27 13 9 13 10 0 6
-17 -4 -27 -47 -11 -47 19 0 12 -32 -9 -37 -11 -3 -18 -9 -15 -13 3 -5 1 -11
-4 -14 -11 -7 -4 -112 10 -148 6 -15 16 -25 23 -22 7 3 18 -1 25 -9 9 -12 6
-14 -21 -11 -18 2 -28 0 -22 -4 7 -4 15 -29 18 -57 4 -27 9 -51 11 -53 7 -8
25 10 20 19 -4 5 8 9 24 9 17 0 31 -4 31 -10 0 -5 -7 -10 -15 -10 -8 0 -15 -7
-15 -16 0 -8 4 -13 9 -9 5 3 12 1 15 -4 7 -10 -22 -25 -42 -22 -10 2 -10 -2 0
-18 7 -12 16 -21 20 -21 17 0 7 -29 -13 -35 -19 -6 -19 -8 -5 -30 8 -12 12
-32 9 -44 -3 -11 -1 -21 5 -21 6 0 18 -8 27 -17 14 -13 23 -15 45 -6 24 9 29
8 33 -7 4 -15 -3 -17 -49 -17 -30 0 -54 4 -54 9 0 5 5 6 10 3 6 -3 10 -2 10 3
0 6 -10 9 -23 8 -28 -1 -35 -36 -8 -36 10 0 43 -9 74 -19 30 -11 58 -17 60
-14 3 3 11 2 18 -3 9 -5 8 -10 -5 -20 -16 -11 -16 -13 1 -22 14 -9 16 -13 6
-23 -10 -10 -13 -10 -13 -1 0 7 -10 12 -21 12 -15 0 -19 4 -13 13 5 7 0 3 -11
-10 -25 -27 -29 -28 -49 -7 -19 18 -43 9 -27 -10 6 -7 8 -16 5 -19 -4 -3 1
-13 9 -22 14 -14 17 -14 25 1 7 13 13 14 31 5 32 -17 26 -33 -21 -64 -31 -19
-37 -37 -13 -37 8 0 15 4 15 10 0 5 7 7 15 4 10 -4 15 0 15 12 0 16 2 16 20
-4 24 -25 26 -36 5 -28 -8 3 -15 0 -15 -7 0 -8 -4 -7 -10 3 -7 12 -12 12 -21
3 -10 -10 -9 -14 4 -18 9 -4 13 -13 10 -22 -4 -11 -2 -14 5 -9 7 4 12 1 12 -9
0 -8 6 -18 13 -21 8 -3 12 -16 9 -33 -2 -16 1 -32 8 -36 7 -4 11 -1 9 6 -1 8
-1 23 0 34 1 15 3 17 10 6 6 -9 11 -10 15 -2 10 15 -16 51 -36 51 -10 0 -18 7
-18 15 0 8 7 15 15 15 8 0 15 -5 15 -11 0 -8 6 -7 17 2 9 8 14 9 10 3 -4 -7 0
-17 9 -24 8 -7 13 -19 10 -26 -3 -7 -1 -16 5 -20 13 -8 -8 -34 -27 -34 -23 0
-16 -20 11 -30 14 -5 25 -12 25 -14 0 -3 -7 -2 -17 1 -9 4 -14 2 -10 -4 3 -5
-3 -17 -13 -26 -20 -17 -36 -7 -25 16 4 6 0 4 -8 -6 -15 -18 -16 -18 -32 7
-10 15 -15 37 -13 51 4 17 1 25 -9 25 -8 0 -12 -4 -9 -9 4 -5 1 -11 -6 -13 -9
-3 -8 -9 5 -22 19 -19 22 -36 7 -36 -5 0 -10 -7 -10 -16 0 -11 -6 -15 -20 -11
-17 4 -20 1 -18 -21 4 -34 17 -44 35 -26 17 16 33 18 33 4 0 -5 -4 -10 -10
-10 -5 0 -10 -6 -10 -14 0 -17 -70 -18 -83 -1 -5 6 -6 -14 -2 -42 4 -40 2 -53
-7 -53 -9 0 -13 -16 -14 -50 -1 -27 3 -50 9 -50 5 0 7 -6 4 -14 -8 -21 45 -34
72 -17 12 8 12 12 2 25 -20 23 2 19 28 -5 12 -12 25 -18 28 -15 10 10 6 60 -6
64 -6 2 -11 8 -11 14 0 6 7 8 15 4 8 -3 15 -1 15 5 0 5 11 7 25 3 17 -4 25 -2
25 7 0 11 2 11 9 0 8 -12 12 -11 27 4 17 17 17 18 -4 35 -19 16 -20 18 -4 22
9 3 26 1 37 -3 11 -4 15 -8 9 -8 -6 -1 -10 -20 -10 -43 1 -34 -3 -45 -20 -53
-17 -9 -19 -13 -8 -23 8 -7 17 -13 21 -13 5 0 10 -3 13 -6 3 -3 -4 -4 -15 -3
-36 4 -45 0 -45 -18 0 -21 -66 -57 -75 -42 -10 17 -25 11 -18 -7 6 -15 5 -16
-9 -3 -11 11 -13 19 -6 27 6 7 14 10 19 7 5 -3 9 -1 9 4 0 6 -6 12 -14 15 -10
4 -20 -8 -32 -39 -10 -26 -23 -44 -33 -45 -10 0 -12 -2 -3 -6 6 -2 12 -9 12
-14 0 -6 -5 -7 -10 -4 -6 3 -17 -1 -26 -10 -11 -11 -20 -13 -28 -5 -7 5 -17 6
-21 2 -5 -4 -5 -2 -1 5 12 21 -10 23 -28 2 -11 -13 -12 -19 -4 -18 28 3 38 -2
38 -21 0 -11 7 -23 15 -26 25 -10 17 -22 -13 -18 -22 2 -28 -1 -28 -16 0 -13
7 -20 19 -20 10 0 15 -5 12 -10 -7 -11 -33 -6 -78 15 -15 8 -27 10 -27 5 0 -5
10 -12 22 -16 32 -10 49 -35 36 -51 -10 -13 2 -19 27 -13 6 1 19 3 30 4 12 1
26 6 33 10 7 4 17 4 22 1 11 -7 13 3 12 50 -1 22 2 26 8 15 13 -20 12 -33 -2
-67 -15 -36 -16 -56 -3 -66 6 -5 3 -13 -9 -22 -16 -12 -17 -17 -6 -30 17 -21
28 -19 51 8 l18 22 1 -31 c0 -39 9 -48 26 -26 8 10 13 12 14 5 0 -15 30 -18
30 -3 0 6 6 10 14 10 8 0 17 7 20 16 4 9 13 14 21 10 8 -3 15 -1 15 4 0 6 -15
10 -32 11 -32 0 -32 1 -8 10 20 8 22 12 10 19 -11 7 -12 10 -2 10 22 0 52 -20
52 -35 0 -25 17 -17 24 10 7 25 -15 61 -28 48 -3 -4 -6 -2 -6 4 0 6 -9 13 -20
16 -11 3 -20 10 -20 17 0 7 9 14 20 17 21 6 26 18 11 27 -5 3 -12 -2 -15 -11
-5 -11 -10 -13 -17 -6 -13 13 12 61 29 55 7 -2 9 -9 6 -15 -5 -8 -2 -8 7 1 20
18 37 15 45 -10 5 -16 1 -27 -15 -39 -11 -9 -21 -20 -21 -24 0 -4 7 -2 15 5
12 10 15 10 16 -1 0 -8 5 -3 10 10 l10 25 14 -28 c8 -15 24 -39 36 -54 l21
-27 -24 -3 c-46 -6 -48 -9 -36 -43 l11 -32 14 27 c14 27 29 36 20 12 -3 -8 -1
-17 6 -19 9 -3 9 -7 0 -19 -7 -8 -9 -18 -5 -22 4 -5 -2 -6 -13 -4 -11 1 -23 7
-27 13 -4 5 -12 -3 -18 -19 -7 -20 -7 -32 0 -41 8 -10 2 -14 -23 -19 -19 -4
-41 -4 -48 -1 -8 3 -23 -1 -33 -8 -18 -13 -18 -15 -1 -47 l17 -33 -33 6 c-19
3 -47 9 -62 12 -16 3 -26 2 -23 -3 3 -5 40 -18 81 -27 41 -10 75 -21 75 -26 0
-4 -8 -6 -17 -4 -10 1 -12 0 -5 -2 17 -6 15 -20 -4 -27 -9 -4 -15 -9 -12 -11
9 -10 38 7 38 21 0 22 16 16 28 -11 8 -18 8 -25 1 -25 -6 0 -9 -7 -5 -15 5
-13 2 -14 -15 -4 -17 9 -25 8 -38 -6 -9 -10 -10 -15 -3 -11 7 4 22 4 33 1 17
-6 19 -9 8 -16 -12 -7 -11 -9 1 -9 9 0 21 5 28 12 9 9 12 9 12 0 0 -7 5 -12
10 -12 6 0 10 6 10 14 0 8 5 18 10 21 6 4 10 3 9 -2 -3 -20 2 -23 17 -9 16 17
35 22 32 9 -4 -16 13 -51 27 -57 8 -3 15 -12 15 -21 0 -9 10 -19 21 -24 21 -7
21 -8 -11 -44 -25 -29 -30 -40 -21 -51 17 -20 33 -78 19 -70 -6 4 -9 3 -7 -3
8 -18 85 -81 126 -101 33 -17 40 -26 36 -42 -3 -11 -1 -20 4 -20 5 0 10 -14
11 -31 1 -17 7 -40 13 -50 8 -16 13 -17 32 -6 12 6 24 13 25 14 2 1 -3 26 -12
56 -14 47 -19 54 -36 50 -16 -4 -19 -2 -14 13 4 11 16 27 26 37 16 16 20 16
33 3 15 -14 55 -11 55 5 0 5 -7 6 -15 3 -20 -8 -19 5 6 45 11 18 18 36 15 39
-4 3 -6 1 -6 -5 0 -6 -9 -9 -20 -6 -19 5 -21 2 -24 -37 -1 -8 -8 -15 -16 -15
-12 0 -15 15 -17 65 0 36 3 72 8 80 6 11 8 8 9 -12 0 -24 3 -26 23 -19 12 5
21 14 19 21 -1 6 2 9 6 6 12 -7 3 -56 -10 -56 -5 0 -6 -5 -3 -10 10 -17 33 13
33 43 0 36 4 40 35 26 34 -15 52 -7 55 25 3 39 29 73 55 72 12 -1 28 4 35 11
10 10 20 7 48 -12 20 -14 41 -22 47 -18 6 4 8 0 4 -11 -4 -9 -3 -15 2 -11 15
9 40 -6 34 -21 -3 -8 -9 -11 -14 -8 -5 3 -9 -5 -9 -17 0 -21 1 -21 24 4 14 15
27 23 30 18 3 -5 -1 -11 -9 -15 -8 -3 -15 -15 -15 -26 0 -15 -7 -20 -27 -20
-21 0 -24 -3 -14 -9 9 -6 24 -6 38 0 14 5 34 9 46 8 21 0 21 -1 2 -10 -14 -6
-5 -8 32 -6 29 2 50 0 47 -5 -3 -4 2 -8 10 -8 11 0 16 9 16 30 0 17 -4 30 -9
30 -5 0 -11 9 -14 21 -4 14 1 23 16 29 21 8 20 9 -5 9 -20 1 -26 5 -22 16 4 8
1 15 -5 15 -6 0 -3 8 6 18 10 11 21 17 25 15 4 -2 9 1 12 6 3 5 -1 12 -9 15
-9 3 -18 -1 -21 -9 -4 -8 -10 -15 -16 -15 -5 0 -7 4 -4 9 3 5 -7 11 -22 14
-18 3 -30 0 -35 -9 -7 -12 -12 -13 -23 -3 -15 12 -19 -1 -14 -46 2 -17 0 -18
-16 -5 -11 9 -15 10 -10 3 4 -7 2 -13 -4 -13 -6 0 -15 12 -21 27 -6 15 -15 31
-22 35 -6 4 -12 15 -12 25 -2 51 -29 112 -61 138 -29 23 -32 31 -27 58 6 29 5
31 -11 18 -9 -8 -16 -10 -14 -4 3 11 -59 73 -72 73 -4 0 -7 7 -7 15 0 18 33
20 41 3 3 -7 3 -3 0 10 -3 12 -1 22 5 22 6 0 11 -8 11 -17 0 -15 2 -16 10 -3
6 10 10 11 10 3 0 -19 18 -16 43 8 12 12 17 19 10 15 -14 -8 -48 58 -38 73 3
6 1 11 -4 11 -15 0 -14 53 1 68 9 9 9 12 0 12 -7 0 -12 7 -12 15 0 22 15 18
26 -6 10 -21 11 -21 28 -4 14 14 20 15 26 5 6 -10 9 -10 13 1 5 11 9 10 20 -3
8 -10 19 -18 24 -18 6 0 8 -12 6 -27 -4 -23 -2 -25 7 -13 10 13 11 12 6 -3 -3
-10 -6 -26 -6 -34 0 -11 -6 -8 -20 10 -23 29 -25 43 -7 50 7 3 5 6 -5 6 -10 1
-18 -5 -18 -13 0 -14 -21 -26 -45 -26 -8 0 -12 8 -10 18 2 12 -3 18 -15 18
-14 0 -16 -5 -9 -30 11 -38 12 -39 43 -25 31 15 38 9 60 -46 16 -40 16 -40 -3
-17 -27 31 -31 27 -12 -13 16 -34 31 -46 31 -24 0 6 6 9 14 6 11 -5 13 0 6 23
-6 20 -4 34 6 47 11 14 14 14 13 3 -3 -33 2 -40 29 -39 16 1 20 3 10 6 -10 2
-18 8 -18 11 0 4 -7 29 -15 56 -15 49 -15 49 4 30 10 -10 17 -22 15 -25 -2 -4
5 -14 16 -24 11 -10 20 -13 20 -8 0 6 -8 14 -17 17 -13 5 -14 9 -4 19 9 9 14
9 21 -3 13 -20 12 -8 -1 27 -8 21 -12 24 -19 13 -7 -12 -13 -10 -29 9 -24 28
-25 33 -9 49 10 10 15 7 25 -10 19 -35 15 -4 -7 51 -11 29 -15 53 -10 56 5 3
1 20 -9 39 -14 25 -16 33 -5 33 7 0 11 -4 8 -9 -4 -5 4 -12 16 -15 12 -3 19
-11 16 -18 -6 -17 21 -28 28 -12 3 7 3 0 0 -14 -3 -15 -1 -30 5 -33 7 -4 11 1
11 13 0 28 17 35 42 19 26 -18 34 -67 10 -63 -10 1 -16 10 -14 21 2 15 1 16
-7 4 -5 -8 -7 -18 -5 -22 3 -5 -8 -6 -25 -3 -32 6 -51 -9 -24 -19 9 -4 20 -1
25 6 6 10 8 9 8 -3 0 -23 -11 -30 -27 -18 -9 9 -13 8 -13 0 0 -6 5 -11 11 -11
6 0 8 -8 4 -19 -3 -11 -1 -22 5 -26 5 -3 11 0 12 7 3 29 4 34 16 55 11 20 15
21 38 11 21 -10 27 -9 35 3 7 12 9 11 9 -2 0 -21 -31 -34 -41 -17 -11 18 -41
-21 -32 -42 3 -8 8 -25 10 -38 4 -14 12 -21 22 -20 14 3 16 -8 16 -71 0 -62
-3 -77 -22 -98 -13 -13 -22 -32 -22 -41 1 -16 2 -16 6 0 2 9 11 19 20 22 12 5
14 1 9 -19 -6 -24 -5 -25 14 -15 11 6 24 8 29 5 5 -3 12 1 14 7 4 10 6 10 6 0
1 -8 -8 -16 -19 -19 -23 -6 -25 -14 -9 -30 6 -6 10 -16 7 -23 -2 -7 -16 1 -35
19 -22 21 -33 26 -36 17 -3 -8 -1 -18 4 -23 5 -5 5 -22 0 -41 -10 -34 -1 -42
21 -19 10 11 16 5 35 -35 12 -27 27 -47 33 -43 5 3 10 2 10 -4 0 -6 -9 -15
-20 -21 -11 -6 -20 -16 -20 -23 0 -7 4 -6 10 3 6 10 12 12 20 4 7 -7 4 -17
-11 -33 -12 -12 -18 -25 -14 -29 9 -9 46 40 41 54 -5 14 51 57 63 50 5 -3 11
0 14 8 3 8 -2 16 -14 19 -10 3 -19 2 -19 -3 0 -4 -11 -5 -25 -2 -14 2 -25 8
-25 13 0 15 -2 23 -11 46 -10 26 5 40 25 24 9 -8 20 -8 37 -1 24 10 24 10 -3
7 -24 -4 -59 18 -50 30 1 1 2 6 1 11 0 4 -4 -2 -9 -13 -8 -19 -9 -19 -9 1 -1
12 5 24 12 27 9 3 13 20 12 46 -1 33 2 41 13 36 10 -4 12 0 8 10 -3 9 -2 13 4
10 6 -3 10 -1 10 5 0 7 9 9 23 5 20 -6 21 -5 5 8 -14 11 -16 20 -8 48 6 19 10
35 10 36 0 1 -12 -5 -27 -13 -34 -17 -51 -18 -35 -2 15 15 16 32 2 23 -5 -3
-10 -2 -10 4 0 5 5 13 10 16 8 5 7 12 -2 22 -11 14 -10 15 7 9 17 -5 23 0 33
26 10 27 9 34 -3 41 -30 16 -7 48 37 52 15 1 18 13 9 36 -5 13 -10 19 -10 12
-1 -6 -9 -10 -19 -8 -15 3 -18 -2 -14 -21 2 -14 0 -24 -7 -24 -6 0 -11 8 -11
18 0 9 -9 23 -20 30 -12 7 -18 17 -15 21 2 5 -8 11 -25 13 -19 3 -31 0 -34 -9
-5 -11 -9 -11 -25 -1 -11 7 -17 16 -14 21 3 5 -3 8 -13 7 -34 -4 -44 0 -44 16
0 8 -4 13 -9 9 -5 -3 -16 1 -24 9 -8 8 -18 12 -22 8 -4 -4 -2 3 6 15 7 12 17
19 21 17 21 -13 27 9 10 34 -11 15 -22 34 -25 42 -4 12 -6 11 -6 -2 -1 -24
-14 -23 -36 2 -10 11 -15 20 -11 20 4 0 2 10 -5 21 -8 16 -8 20 0 14 7 -4 19
-1 27 6 12 10 12 14 2 20 -10 7 -10 9 0 9 23 0 12 36 -23 70 -19 19 -35 38
-35 43 0 4 7 1 16 -7 8 -9 20 -13 26 -10 7 4 8 2 4 -4 -13 -21 5 -34 20 -15
15 21 18 37 5 28 -5 -3 -13 0 -17 6 -4 8 -3 9 4 5 7 -4 12 -1 12 8 0 9 -6 16
-12 16 -9 0 -8 3 2 10 13 8 12 11 -4 23 -18 13 -18 14 5 13 18 -1 25 5 28 24
3 25 3 25 -18 6 -18 -16 -25 -17 -46 -8 -15 7 -26 21 -27 34 -1 13 -2 31 -3
40 0 9 -4 20 -8 24 -4 4 -5 21 -1 38 4 22 0 37 -14 51 -27 29 -59 81 -45 72 6
-4 15 -2 19 4 5 8 9 7 14 -2 12 -19 37 5 45 42 6 28 25 51 25 30 0 -6 9 -11
20 -11 23 0 26 10 8 28 -9 9 -9 12 1 12 7 0 15 -9 18 -20 3 -11 9 -20 14 -20
20 0 7 -20 -13 -21 -22 0 -22 -1 -3 -8 11 -5 25 -6 31 -4 7 2 15 0 19 -6 3 -7
0 -8 -9 -5 -31 12 -15 -23 30 -66 36 -34 48 -41 55 -29 12 20 12 21 -16 52
-15 16 -20 27 -13 27 9 0 9 3 -2 9 -8 6 -17 8 -20 6 -4 -2 -7 2 -7 10 0 10 5
11 18 4 12 -6 20 -5 25 2 9 16 -23 39 -44 32 -15 -4 -15 -3 -2 6 13 9 12 12
-4 24 -13 10 -15 16 -8 21 7 4 12 1 12 -6 0 -9 3 -9 10 2 6 10 10 11 10 3 0
-7 4 -13 10 -13 6 0 5 10 -2 25 -8 17 -14 22 -19 14 -11 -18 -39 -3 -39 21 0
11 -5 20 -12 20 -6 0 -9 3 -5 6 3 3 2 17 -4 31 -6 16 -6 22 1 18 6 -3 10 1 10
9 0 9 -7 16 -15 16 -8 0 -15 -7 -15 -16 0 -14 -3 -14 -15 -4 -12 10 -15 10
-15 -4 0 -9 0 -19 0 -23 0 -5 5 -8 12 -8 6 0 13 -6 16 -14 3 -8 0 -11 -6 -7
-5 3 -13 -1 -16 -9 -4 -13 -12 -10 -44 12 -41 29 -70 75 -52 81 17 6 11 17
-19 35 -21 12 -29 24 -26 38 2 11 -2 22 -10 26 -8 3 -12 10 -8 16 3 5 1 7 -5
3 -6 -3 -13 -2 -17 4 -3 5 2 10 11 10 22 0 15 7 -11 12 -11 1 -23 8 -27 13 -5
6 -12 4 -18 -5 -6 -9 -10 -10 -10 -3 0 6 5 15 12 19 7 5 4 10 -11 16 -12 4
-19 12 -16 18 4 6 10 8 15 5 15 -9 18 10 4 23 -8 7 -14 10 -14 7 0 -3 -11 2
-24 10 -18 12 -26 13 -32 4 -4 -7 -3 -9 3 -6 6 4 16 0 24 -9 10 -13 9 -19 -10
-37 -12 -12 -36 -27 -54 -34 -30 -11 -31 -12 -9 -19 16 -5 20 -10 12 -19 -11
-13 4 -33 25 -34 18 0 17 -29 -2 -34 -10 -3 0 -3 22 0 36 4 45 1 73 -28 18
-18 32 -38 32 -43 0 -6 -7 -3 -14 7 -16 21 -30 23 -22 2 4 -11 2 -13 -12 -5
-9 6 -30 14 -45 20 -16 5 -25 14 -22 20 3 5 -3 10 -14 10 -12 0 -21 -4 -21
-10 0 -5 5 -10 10 -10 6 0 10 -9 10 -20 0 -11 -6 -20 -14 -20 -8 0 -16 -5 -18
-10 -2 -6 -21 -2 -46 10 -38 19 -42 23 -30 37 12 15 11 15 -9 5 -31 -17 -34
-15 -27 13 5 22 3 25 -20 25 -14 0 -26 -6 -27 -12 -1 -7 -4 -2 -8 12 -4 15 -3
28 3 32 7 5 5 8 -4 8 -20 0 -57 43 -42 48 6 2 8 9 6 17 -4 10 -12 11 -30 5
-19 -8 -26 -6 -34 10 -8 15 -6 20 11 25 16 5 19 12 15 31 -8 29 5 31 22 4 7
-11 8 -20 2 -20 -5 0 -7 -6 -4 -14 3 -8 19 -13 42 -12 33 1 37 4 38 29 1 23
-3 27 -25 28 l-26 1 29 10 c22 8 30 7 37 -3 13 -21 11 -45 -6 -59 -17 -14 -21
-45 -5 -35 6 3 10 1 10 -4 0 -6 6 -11 14 -11 8 0 17 -7 20 -16 9 -23 41 -13
42 13 1 16 -8 26 -28 35 -24 11 -29 18 -25 41 2 15 0 27 -5 27 -4 0 -10 11
-14 25 -3 14 -10 25 -16 25 -5 0 -7 -4 -3 -9 3 -6 -3 -9 -14 -8 -14 1 -17 5
-10 13 9 11 2 21 -28 38 -9 5 -11 2 -6 -11 6 -16 5 -16 -10 -4 -14 11 -20 11
-32 1 -19 -16 -19 -1 0 24 8 10 19 15 26 10 8 -4 10 -3 5 4 -5 8 2 12 18 12
17 0 26 6 26 16 0 8 8 15 18 14 24 -3 62 10 62 21 0 5 6 9 14 9 8 0 17 6 19
13 4 9 6 9 6 -1 1 -7 6 -10 11 -7 18 11 11 23 -20 34 -16 5 -30 6 -30 2 0 -5
-9 -11 -21 -14 -16 -4 -18 -3 -8 9 9 12 6 14 -17 14 -61 1 -150 13 -160 22 -9
6 -12 0 -10 -23 1 -30 -2 -33 -31 -36 -40 -5 -82 30 -63 53 10 11 7 16 -15 24
-14 5 -29 10 -33 10 -4 0 -13 9 -20 21 -8 12 -9 18 -3 14 6 -3 11 -1 11 5 0 6
-8 14 -17 17 -36 14 -41 26 -19 44 19 16 20 18 4 24 -10 4 -18 15 -18 24 0 14
-2 14 -10 1 -6 -10 -10 -11 -10 -2 0 6 -4 12 -10 12 -5 0 -7 -6 -4 -14 3 -8 0
-17 -7 -22 -7 -4 -15 -2 -17 4 -2 7 -13 17 -25 23 -19 9 -20 8 -6 -3z m79 -99
c0 -14 -17 -10 -23 5 -4 10 -1 13 9 9 7 -3 14 -9 14 -14z m30 -39 c0 -5 -2
-10 -4 -10 -3 0 -8 5 -11 10 -3 6 -1 10 4 10 6 0 11 -4 11 -10z m63 -29 c4 -1
7 -5 7 -10 0 -5 -9 -7 -20 -4 -11 3 -35 2 -54 -1 -28 -5 -34 -10 -29 -24 4
-13 3 -14 -6 -6 -13 12 -4 47 10 38 5 -3 17 -1 26 5 10 5 27 8 38 6 11 -2 23
-4 28 -4z m-125 -20 c3 -8 -1 -12 -9 -9 -7 2 -15 10 -17 17 -3 8 1 12 9 9 7
-2 15 -10 17 -17z m-78 -13 c0 -5 -13 -7 -30 -6 -16 1 -30 6 -30 10 0 5 14 7
30 6 17 -1 30 -6 30 -10z m409 -12 c7 -4 24 -5 37 -2 18 5 24 3 19 -5 -4 -6
-20 -9 -36 -7 -16 3 -29 1 -29 -4 0 -5 -6 -6 -12 -1 -7 4 -19 8 -27 8 -8 0
-16 5 -18 10 -4 12 47 12 66 1z m-339 -15 c0 -5 10 -9 23 -9 62 -2 82 -8 85
-26 2 -10 -2 -23 -9 -30 -9 -8 -10 -8 -4 3 6 11 3 13 -16 8 -14 -4 -37 0 -52
8 -18 9 -27 10 -27 3 0 -21 -12 0 -14 26 -2 14 1 26 5 26 5 0 9 -4 9 -9z m455
-21 c3 -6 -4 -10 -17 -10 -18 0 -20 2 -8 10 19 12 18 12 25 0z m-561 -26 c3
-8 1 -14 -4 -14 -6 0 -10 6 -10 13 0 8 -4 7 -10 -3 -8 -12 -10 -11 -10 7 0 25
24 22 34 -3z m462 11 c-3 -9 0 -15 9 -15 8 0 15 -4 15 -10 0 -5 -11 -10 -24
-10 -18 0 -23 5 -21 23 3 28 3 27 16 27 6 0 9 -7 5 -15z m-322 -34 c4 -5 -3
-7 -14 -4 -23 6 -26 13 -6 13 8 0 17 -4 20 -9z m-84 -42 c0 -6 -7 -9 -15 -5
-8 3 -15 1 -15 -4 0 -6 -7 -10 -15 -10 -9 0 -12 6 -9 15 7 17 54 21 54 4z
m398 -39 c7 -11 11 -20 9 -20 -2 0 -12 9 -22 20 -10 11 -14 20 -9 20 5 0 15
-9 22 -20z m-421 -32 c-3 -8 -6 -5 -6 6 -1 11 2 17 5 13 3 -3 4 -12 1 -19z
m43 -8 c0 -5 -4 -10 -10 -10 -5 0 -10 5 -10 10 0 6 5 10 10 10 6 0 10 -4 10
-10z m672 -156 c21 -15 38 -31 38 -37 0 -6 -8 -3 -17 5 -10 8 -32 21 -50 29
-17 7 -29 17 -27 21 8 12 15 10 56 -18z m81 -9 c15 -4 27 -11 27 -17 0 -5 -4
-7 -9 -3 -5 3 -12 1 -16 -5 -13 -21 -30 -9 -42 28 -9 30 -9 34 1 20 7 -9 24
-20 39 -23z m-783 11 c0 -3 -4 -8 -10 -11 -5 -3 -10 -1 -10 4 0 6 5 11 10 11
6 0 10 -2 10 -4z m820 -136 c0 -5 -2 -10 -4 -10 -3 0 -8 5 -11 10 -3 6 -1 10
4 10 6 0 11 -4 11 -10z m-110 -19 c0 -5 -10 -11 -22 -14 -22 -6 -22 -6 -4 8
23 17 26 18 26 6z m-300 -41 c0 -13 -32 -28 -48 -23 -6 3 -10 9 -7 13 3 5 13
6 22 3 11 -4 14 -3 9 5 -4 7 -1 12 8 12 9 0 16 -4 16 -10z m63 -2 c9 2 17 -2
17 -8 0 -6 -5 -8 -11 -5 -6 4 -17 -1 -25 -11 -9 -11 -13 -14 -10 -7 4 6 2 14
-4 18 -5 3 -10 11 -10 16 0 6 6 7 13 2 6 -4 20 -6 30 -5z m207 -22 c0 -15 -18
-31 -26 -23 -7 7 7 37 17 37 5 0 9 -6 9 -14z m335 4 c3 -5 1 -10 -4 -10 -6 0
-11 5 -11 10 0 6 2 10 4 10 3 0 8 -4 11 -10z m-260 -10 c24 -9 25 -11 10 -34
-11 -17 -22 -22 -37 -18 -14 3 -19 1 -14 -6 9 -16 -7 -15 -22 0 -23 23 -7 68
24 68 7 0 24 -4 39 -10z m103 -272 c-6 -18 -38 -22 -52 -8 -8 10 -5 11 17 6
19 -4 26 -3 22 4 -3 5 -1 10 5 10 7 0 10 -6 8 -12z m-678 -159 c0 -5 -7 -9
-15 -9 -8 0 -15 7 -15 15 0 9 6 12 15 9 8 -4 15 -10 15 -15z m684 -3 c1 -9 13
-28 27 -43 17 -20 19 -23 4 -13 -11 8 -23 19 -27 24 -4 6 -12 5 -20 -2 -11 -8
-17 -6 -28 11 -12 21 -12 21 5 7 17 -14 18 -13 12 2 -4 12 -2 15 9 11 10 -4
12 0 8 13 -4 11 -4 16 0 12 4 -3 9 -13 10 -22z m-644 -26 c0 -5 -4 -10 -10
-10 -5 0 -10 5 -10 10 0 6 5 10 10 10 6 0 10 -4 10 -10z m-65 -29 c-4 -13 1
-24 17 -35 12 -9 18 -16 13 -16 -6 0 10 -10 35 -23 32 -15 45 -27 42 -39 -4
-19 -22 -25 -22 -7 0 5 -5 7 -10 4 -6 -4 -10 -3 -9 2 5 30 -24 49 -33 22 -5
-16 -48 7 -48 26 0 12 -4 12 -27 -1 -16 -7 -36 -14 -46 -14 -11 0 -15 -4 -11
-12 4 -7 3 -8 -5 -4 -10 7 0 35 27 76 2 3 10 -4 18 -14 13 -19 14 -19 14 6 0
16 8 29 23 36 30 14 29 15 22 -7z m-135 -15 c0 -3 -4 -8 -10 -11 -5 -3 -10 -1
-10 4 0 6 5 11 10 11 6 0 10 -2 10 -4z m222 -18 c-7 -7 -12 -8 -12 -2 0 14 12
26 19 19 2 -3 -1 -11 -7 -17z m722 -74 c3 -8 2 -12 -4 -9 -6 3 -10 10 -10 16
0 14 7 11 14 -7z m-654 -45 c0 -11 -7 -19 -16 -19 -14 0 -14 3 -4 15 9 10 9
15 1 15 -6 0 -11 7 -11 16 0 14 3 14 15 4 8 -7 15 -21 15 -31z m-203 2 c-1
-15 -4 -17 -14 -9 -17 14 -16 28 1 28 8 0 14 -9 13 -19z m425 9 c18 0 19 -2 7
-17 -10 -11 -10 -14 -1 -9 8 5 12 0 12 -18 0 -14 -5 -28 -10 -31 -6 -4 -8 -11
-5 -16 4 -5 2 -9 -2 -9 -5 0 -14 9 -21 20 -8 14 -9 19 -1 18 6 -2 13 2 16 9 2
6 -3 10 -13 9 -10 -2 -20 -9 -22 -16 -3 -7 -11 2 -19 20 -11 27 -11 35 -1 42
7 4 19 6 26 3 8 -3 23 -5 34 -5z m402 -86 c3 -8 2 -12 -4 -9 -6 3 -10 10 -10
16 0 14 7 11 14 -7z m-909 -4 c3 -5 1 -10 -4 -10 -6 0 -11 5 -11 10 0 6 2 10
4 10 3 0 8 -4 11 -10z m825 -20 c0 -5 -5 -10 -11 -10 -5 0 -7 5 -4 10 3 6 8
10 11 10 2 0 4 -4 4 -10z m43 -43 c-2 -4 -9 -4 -15 -1 -6 4 -14 0 -20 -7 -7
-11 -8 -9 -6 6 2 11 10 25 18 32 12 9 16 8 21 -5 4 -9 4 -20 2 -25z m67 19 c0
-3 -4 -8 -10 -11 -5 -3 -10 -1 -10 4 0 6 5 11 10 11 6 0 10 -2 10 -4z m-130
-13 c-8 -3 -18 -11 -22 -17 -9 -14 -22 -1 -13 13 3 6 16 11 28 10 15 0 17 -2
7 -6z m-693 -38 c-4 -8 -12 -15 -19 -14 -10 0 -10 2 0 6 6 2 12 12 12 21 0 8
3 13 6 9 4 -3 4 -13 1 -22z m38 5 c3 -5 1 -10 -4 -10 -6 0 -11 5 -11 10 0 6 2
10 4 10 3 0 8 -4 11 -10z m585 -32 c0 -19 -16 -5 -17 14 -2 18 0 20 7 8 5 -8
10 -18 10 -22z m-773 -73 c-4 -8 -14 -15 -23 -15 -16 0 -16 2 2 19 21 21 29
19 21 -4z m763 -24 c-1 -28 -21 -61 -37 -61 -15 0 -34 48 -22 56 6 3 13 -3 16
-15 3 -12 9 -21 14 -21 13 0 11 7 -7 36 -15 21 -15 24 -1 18 12 -4 14 -1 10
18 -6 21 -5 22 10 9 9 -7 17 -25 17 -40z m202 32 c-6 -2 -10 -9 -7 -13 3 -5
12 -7 19 -4 18 7 29 -25 15 -42 -16 -20 -30 -17 -64 10 -25 20 -28 26 -16 40
7 9 25 16 40 15 14 0 20 -3 13 -6z m-142 -18 c4 3 7 -3 6 -13 0 -9 4 -16 10
-15 7 1 10 -5 7 -15 -2 -10 -13 -18 -24 -18 -16 0 -20 5 -16 23 2 12 -1 24 -6
26 -6 2 -7 9 -2 17 6 10 10 11 13 2 2 -7 7 -10 12 -7z m396 -23 c-18 -16 -19
-16 -12 1 3 10 6 24 6 30 0 8 4 7 12 -1 10 -9 8 -16 -6 -30z m-1010 3 c-2 -7
1 -18 7 -24 8 -8 8 -11 0 -11 -7 0 -15 9 -18 20 -3 11 -11 20 -16 20 -6 0 -8
4 -4 10 8 13 37 0 31 -15z m220 -15 c27 0 30 -9 12 -29 -11 -11 -10 -13 5 -8
11 4 17 1 17 -7 0 -14 -23 -13 -60 2 -8 3 -22 6 -30 7 -19 1 -14 36 8 53 14
11 18 10 20 -2 2 -9 14 -16 28 -16z m878 22 c3 -5 -1 -9 -9 -9 -8 0 -12 4 -9
9 3 4 7 8 9 8 2 0 6 -4 9 -8z m-614 -35 c0 -5 -4 -5 -10 -2 -5 3 -10 14 -10
23 0 15 2 15 10 2 5 -8 10 -19 10 -23z m90 8 c-8 -10 -7 -14 2 -18 7 -2 11 -7
8 -10 -12 -13 -29 10 -23 31 3 12 9 19 15 16 5 -3 5 -11 -2 -19z m130 5 c6
-11 15 -18 19 -16 9 6 45 -31 54 -55 5 -15 3 -15 -24 -2 -16 8 -31 18 -34 24
-4 5 -14 9 -23 9 -21 0 -45 47 -28 54 20 8 25 6 36 -14z m-532 -55 c16 -6 22
-14 19 -31 -1 -13 -6 -26 -9 -30 -4 -3 -4 -12 -2 -19 4 -8 -7 -20 -25 -29 -29
-15 -31 -15 -41 5 -7 11 -9 32 -6 45 4 13 2 33 -4 44 -9 16 -8 19 6 13 10 -4
15 -2 11 4 -6 10 13 9 51 -2z m490 -10 c-3 -3 -9 2 -12 12 -6 14 -5 15 5 6 7
-7 10 -15 7 -18z m-128 0 c0 -8 3 -15 8 -15 12 0 31 -49 21 -56 -5 -3 -13 5
-18 18 -5 13 -19 33 -30 46 -22 22 -22 22 -1 22 11 0 20 -7 20 -15z m-782 -9
c-7 -8 -15 -12 -17 -11 -5 6 10 25 20 25 5 0 4 -6 -3 -14z m1185 -7 c-4 -13
-9 -17 -15 -11 -11 11 -3 32 12 32 4 0 6 -9 3 -21z m-421 -86 c-6 -2 -9 -9 -6
-15 4 -6 -1 -8 -11 -6 -31 6 -30 28 2 27 15 0 22 -3 15 -6z m33 -22 c3 -5 1
-12 -5 -16 -5 -3 -10 1 -10 9 0 18 6 21 15 7z m-165 -17 c0 -8 -5 -12 -10 -9
-6 4 -8 11 -5 16 9 14 15 11 15 -7z m680 -9 c0 -9 -6 -12 -16 -8 -13 5 -13 7
-2 14 17 11 18 11 18 -6z m-460 -5 c0 -5 -9 -10 -20 -10 -11 0 -20 5 -20 10 0
6 9 10 20 10 11 0 20 -4 20 -10z m-745 -10 c3 -5 1 -10 -4 -10 -6 0 -11 5 -11
10 0 6 2 10 4 10 3 0 8 -4 11 -10z m692 -22 c-3 -8 -6 -5 -6 6 -1 11 2 17 5
13 3 -3 4 -12 1 -19z m-531 -140 c4 -7 3 -8 -4 -4 -8 5 -12 -1 -12 -15 0 -16
-3 -20 -10 -13 -11 11 -3 44 10 44 5 0 12 -5 16 -12z m-49 -20 c-3 -8 -6 -5
-6 6 -1 11 2 17 5 13 3 -3 4 -12 1 -19z m13 -28 c0 -5 -4 -10 -10 -10 -5 0
-10 5 -10 10 0 6 5 10 10 10 6 0 10 -4 10 -10z m439 -31 c-16 -10 -39 0 -39
17 0 11 5 11 25 2 17 -8 22 -14 14 -19z m41 16 c0 -8 -4 -15 -10 -15 -5 0 -10
7 -10 15 0 8 5 15 10 15 6 0 10 -7 10 -15z m397 -181 c-3 -3 -12 -4 -19 -1 -8
3 -5 6 6 6 11 1 17 -2 13 -5z m-308 -81 c0 -25 -1 -26 -9 -8 -12 27 -12 35 0
35 6 0 10 -12 9 -27z m352 -24 c13 -21 11 -28 -8 -24 -10 2 -24 4 -32 4 -10 1
-11 4 -2 15 9 11 9 15 -1 19 -7 3 -3 5 10 3 13 -1 28 -9 33 -17z m-568 -24
c-7 -21 -12 -19 -10 4 0 11 5 18 9 15 4 -3 5 -11 1 -19z"/>
<path d="M1440 2281 c0 -5 5 -13 10 -16 6 -3 10 -2 10 4 0 5 -4 13 -10 16 -5
3 -10 2 -10 -4z"/>
<path d="M1860 1986 c0 -2 7 -7 16 -10 8 -3 12 -2 9 4 -6 10 -25 14 -25 6z"/>
<path d="M1266 1861 c-14 -5 -16 -10 -7 -15 7 -4 9 -16 5 -28 -5 -17 -3 -18
15 -9 24 13 27 27 9 34 -10 4 -10 6 0 6 6 1 12 6 12 11 0 11 -7 12 -34 1z"/>
<path d="M666 3721 c-3 -5 1 -14 8 -20 12 -10 13 -8 9 8 -6 23 -9 25 -17 12z"/>
<path d="M1125 3710 c3 -5 8 -10 11 -10 2 0 4 5 4 10 0 6 -5 10 -11 10 -5 0
-7 -4 -4 -10z"/>
<path d="M1880 3705 c-14 -16 -3 -20 19 -6 8 5 9 11 3 15 -5 3 -15 -1 -22 -9z"/>
<path d="M875 3680 c-4 -6 1 -7 11 -3 13 5 16 2 12 -9 -4 -8 2 -22 13 -32 29
-24 31 -20 8 19 -21 36 -33 43 -44 25z"/>
<path d="M1840 3686 c0 -3 9 -10 20 -16 11 -6 20 -8 20 -6 0 3 -9 10 -20 16
-11 6 -20 8 -20 6z"/>
<path d="M1115 3630 c-3 -5 -1 -10 4 -10 6 0 11 5 11 10 0 6 -2 10 -4 10 -3 0
-8 -4 -11 -10z"/>
<path d="M1990 3600 c-8 -5 -11 -12 -8 -16 10 -9 38 3 38 16 0 12 -10 13 -30
0z"/>
<path d="M855 3590 c-3 -5 1 -10 10 -10 9 0 13 5 10 10 -3 6 -8 10 -10 10 -2
0 -7 -4 -10 -10z"/>
<path d="M1335 3589 c-9 -14 -2 -20 14 -10 8 6 9 11 3 15 -6 3 -14 1 -17 -5z"/>
<path d="M2005 3561 c-7 -13 38 -61 57 -61 9 0 9 -3 -2 -10 -10 -6 -17 -5 -23
6 -7 12 -12 13 -23 3 -19 -16 -18 -27 6 -34 11 -3 19 -9 17 -13 -1 -4 3 -8 8
-9 6 -2 10 3 10 10 0 6 8 11 18 11 12 -1 15 2 8 10 -5 6 -10 16 -11 21 -10 45
-24 69 -43 73 -8 2 -18 -2 -22 -7z"/>
<path d="M640 3530 c0 -5 5 -10 11 -10 5 0 7 5 4 10 -3 6 -8 10 -11 10 -2 0
-4 -4 -4 -10z"/>
<path d="M1516 3470 c-6 -9 -19 -16 -28 -17 -41 -2 -46 -4 -44 -20 1 -13 -5
-17 -19 -15 -11 2 -17 1 -13 -4 4 -4 3 -13 -4 -21 -6 -7 -7 -17 -3 -21 4 -4
10 -1 12 6 7 18 20 15 26 -8 5 -21 27 -28 27 -9 0 5 -4 7 -10 4 -5 -3 -10 -1
-10 4 0 6 4 11 10 11 5 0 7 7 4 15 -4 8 -2 15 3 15 12 0 53 -35 56 -47 1 -4
17 -8 34 -8 18 -1 30 1 28 4 -3 2 5 16 17 29 13 14 18 22 11 18 -6 -3 -14 -2
-18 4 -3 6 4 11 17 11 17 1 18 3 5 6 -9 2 -15 8 -12 13 3 5 -4 15 -15 23 -11
7 -18 16 -16 18 2 2 -7 4 -21 4 -14 0 -30 -7 -37 -15z m8 -38 c3 -5 -1 -9 -9
-9 -8 0 -15 4 -15 9 0 4 4 8 9 8 6 0 12 -4 15 -8z"/>
<path d="M1711 3482 c-6 -2 -11 -11 -11 -19 0 -12 -3 -13 -14 -4 -10 8 -16 8
-25 -3 -9 -11 -9 -16 0 -22 9 -5 5 -10 -11 -16 -30 -11 -23 -16 27 -19 24 -2
44 -8 47 -14 3 -8 -4 -10 -19 -7 -20 3 -23 1 -18 -16 6 -24 49 -56 63 -47 6 3
10 1 10 -4 0 -18 -5 -26 -13 -23 -5 1 -6 -2 -2 -8 4 -6 14 -9 23 -8 11 2 16
-3 14 -13 -1 -9 5 -20 15 -23 10 -4 14 -4 11 -1 -4 4 -2 18 3 32 6 17 6 30 -2
39 -6 8 -9 20 -6 29 9 21 -22 115 -39 122 -8 3 -13 11 -10 19 5 12 -15 15 -43
6z m44 -142 c3 -5 1 -10 -4 -10 -6 0 -11 5 -11 10 0 6 2 10 4 10 3 0 8 -4 11
-10z"/>
<path d="M582 3340 c2 -17 10 -26 26 -28 12 -2 22 2 22 8 0 7 -7 9 -16 6 -8
-3 -13 -2 -10 3 3 5 -1 15 -10 22 -14 11 -15 10 -12 -11z"/>
<path d="M1810 3320 c0 -5 5 -10 11 -10 5 0 7 5 4 10 -3 6 -8 10 -11 10 -2 0
-4 -4 -4 -10z"/>
<path d="M1560 3300 c0 -5 5 -10 11 -10 5 0 7 5 4 10 -3 6 -8 10 -11 10 -2 0
-4 -4 -4 -10z"/>
<path d="M1308 3243 c7 -3 16 -2 19 1 4 3 -2 6 -13 5 -11 0 -14 -3 -6 -6z"/>
<path d="M598 3195 c4 -42 2 -45 -30 -59 -18 -8 -28 -15 -21 -15 6 -1 9 -10 6
-21 -3 -11 0 -20 5 -20 17 0 52 -42 52 -61 0 -10 -8 -22 -17 -28 -30 -16 -2
-36 28 -20 13 7 30 15 38 18 7 4 27 25 44 48 l30 42 -30 38 c-17 21 -34 48
-38 61 -3 13 -18 27 -31 32 -13 5 -24 14 -24 20 0 5 -3 10 -8 10 -4 0 -6 -20
-4 -45z"/>
<path d="M1800 3210 c0 -5 5 -10 11 -10 5 0 7 5 4 10 -3 6 -8 10 -11 10 -2 0
-4 -4 -4 -10z"/>
<path d="M1517 3170 c-13 -12 -17 -26 -12 -39 9 -30 -2 -26 -19 7 -14 25 -15
25 -16 5 0 -22 24 -53 41 -53 5 0 9 7 9 15 0 12 4 13 19 6 16 -9 20 -6 24 15
3 16 -1 28 -9 31 -7 2 -10 11 -7 19 7 19 -8 17 -30 -6z"/>
<path d="M1795 3180 c-3 -6 1 -7 9 -4 18 7 21 14 7 14 -6 0 -13 -4 -16 -10z"/>
<path d="M1370 3170 c0 -5 14 -10 32 -10 36 0 35 4 -4 14 -17 4 -28 2 -28 -4z"/>
<path d="M2670 3171 c0 -5 5 -13 10 -16 6 -3 10 -2 10 4 0 5 -4 13 -10 16 -5
3 -10 2 -10 -4z"/>
<path d="M1860 3151 c-8 -17 -7 -20 10 -18 21 1 27 21 11 32 -6 3 -15 -3 -21
-14z"/>
<path d="M1936 3137 c3 -10 9 -15 12 -12 3 3 0 11 -7 18 -10 9 -11 8 -5 -6z"/>
<path d="M2710 3132 c0 -6 6 -15 14 -19 7 -4 15 -15 18 -23 3 -9 7 -10 11 -3
3 5 -5 21 -18 33 -14 13 -25 18 -25 12z"/>
<path d="M1893 3115 c-17 -19 -16 -26 2 -19 11 4 13 2 9 -9 -3 -8 -1 -18 5
-22 6 -3 11 -1 11 5 0 7 7 10 15 6 22 -8 18 14 -7 35 -11 11 -21 19 -22 19 -1
-1 -7 -7 -13 -15z"/>
<path d="M2450 3091 c0 -12 6 -21 15 -21 8 0 15 3 15 6 0 3 -7 12 -15 20 -13
14 -15 13 -15 -5z"/>
<path d="M2430 3045 c0 -5 5 -17 10 -25 5 -8 10 -10 10 -5 0 6 -5 17 -10 25
-5 8 -10 11 -10 5z"/>
<path d="M764 2985 c-18 -13 -18 -14 4 -8 12 3 25 9 28 14 8 14 -10 11 -32 -6z"/>
<path d="M2055 2980 c3 -5 8 -10 11 -10 2 0 4 5 4 10 0 6 -5 10 -11 10 -5 0
-7 -4 -4 -10z"/>
<path d="M778 2963 c6 -2 12 -11 12 -19 0 -12 4 -12 20 -2 22 14 9 28 -25 27
-11 0 -14 -3 -7 -6z"/>
<path d="M2017 2956 c-3 -8 2 -16 14 -19 16 -4 17 -2 8 14 -12 23 -15 23 -22
5z"/>
<path d="M2060 2949 c0 -5 5 -7 10 -4 6 3 10 8 10 11 0 2 -4 4 -10 4 -5 0 -10
-5 -10 -11z"/>
<path d="M2415 2951 c-3 -5 -2 -12 3 -15 5 -3 9 1 9 9 0 17 -3 19 -12 6z"/>
<path d="M750 2939 c0 -5 5 -7 10 -4 6 3 10 8 10 11 0 2 -4 4 -10 4 -5 0 -10
-5 -10 -11z"/>
<path d="M2475 2900 c3 -5 8 -10 11 -10 2 0 4 5 4 10 0 6 -5 10 -11 10 -5 0
-7 -4 -4 -10z"/>
<path d="M868 2883 c7 -3 16 -2 19 1 4 3 -2 6 -13 5 -11 0 -14 -3 -6 -6z"/>
<path d="M926 2872 c-3 -6 3 -12 15 -15 12 -3 19 -1 16 6 -5 15 -24 20 -31 9z"/>
<path d="M850 2796 c0 -2 7 -7 16 -10 8 -3 12 -2 9 4 -6 10 -25 14 -25 6z"/>
<path d="M1911 2784 c0 -11 3 -14 6 -6 3 7 2 16 -1 19 -3 4 -6 -2 -5 -13z"/>
<path d="M1930 2791 c0 -5 5 -13 10 -16 6 -3 10 -2 10 4 0 5 -4 13 -10 16 -5
3 -10 2 -10 -4z"/>
<path d="M807 2753 c9 -25 33 -48 33 -33 0 7 7 10 15 6 8 -3 15 -2 15 2 -1 16
-26 37 -47 40 -18 3 -21 0 -16 -15z"/>
<path d="M1870 2743 c0 -6 -6 -13 -12 -16 -7 -2 -1 -8 14 -12 16 -4 25 -12 21
-18 -3 -5 -1 -7 5 -4 5 4 8 17 4 29 -3 14 -2 19 6 14 7 -4 12 -3 12 3 0 5 8
12 18 14 9 3 -2 4 -25 4 -25 -1 -43 -7 -43 -14z"/>
<path d="M1971 2694 c0 -11 3 -14 6 -6 3 7 2 16 -1 19 -3 4 -6 -2 -5 -13z"/>
<path d="M2560 2695 c-8 -9 -8 -15 -2 -15 12 0 26 19 19 26 -2 2 -10 -2 -17
-11z"/>
<path d="M2602 2698 c-7 -7 -12 -18 -12 -25 0 -7 -11 -15 -25 -19 -16 -4 -25
-13 -25 -26 0 -16 3 -18 14 -9 14 12 46 5 46 -9 0 -4 10 -10 21 -13 l21 -6
-21 20 c-11 11 -21 25 -20 32 0 9 2 9 6 0 8 -20 23 -15 20 7 -2 11 -6 22 -9
26 -4 3 -4 12 -1 20 6 17 1 18 -15 2z"/>
<path d="M870 2680 c-9 -6 -10 -10 -3 -10 6 0 15 5 18 10 8 12 4 12 -15 0z"/>
<path d="M527 2665 c-4 -8 -16 -15 -28 -15 -17 0 -19 -4 -13 -17 4 -10 8 -33
8 -51 0 -22 3 -29 10 -22 5 5 25 10 43 10 18 0 33 3 33 8 0 4 -11 29 -24 55
-16 33 -25 43 -29 32z"/>
<path d="M1870 2660 c0 -5 4 -10 9 -10 6 0 13 5 16 10 3 6 -1 10 -9 10 -9 0
-16 -4 -16 -10z"/>
<path d="M2000 2656 c0 -2 7 -9 15 -16 13 -11 14 -10 9 4 -5 14 -24 23 -24 12z"/>
<path d="M587 2633 c-12 -11 -8 -23 8 -23 8 0 15 7 15 15 0 16 -12 20 -23 8z"/>
<path d="M1965 2620 c-3 -5 -1 -10 4 -10 6 0 11 5 11 10 0 6 -2 10 -4 10 -3 0
-8 -4 -11 -10z"/>
<path d="M915 2610 c3 -5 0 -10 -7 -10 -10 0 -9 -3 2 -11 12 -8 9 -9 -12 -5
-15 3 -30 2 -33 -4 -4 -6 8 -10 30 -10 30 0 36 3 31 16 -5 12 -2 15 10 10 14
-5 15 -4 4 9 -14 17 -35 21 -25 5z"/>
<path d="M1912 2608 c2 -6 10 -13 16 -14 7 -1 8 0 2 3 -5 2 -8 9 -4 14 3 5 0
9 -6 9 -7 0 -10 -5 -8 -12z"/>
<path d="M2540 2590 c0 -5 6 -10 13 -10 7 0 4 -7 -7 -15 -11 -8 -14 -15 -8
-15 7 0 12 -4 12 -10 0 -5 -7 -10 -16 -10 -8 0 -13 -4 -9 -9 3 -5 1 -13 -5
-16 -6 -4 -10 -3 -9 2 1 4 1 19 0 33 -1 19 -4 22 -10 11 -6 -9 -5 -24 0 -39 5
-13 6 -28 3 -34 -5 -7 2 -9 20 -4 15 4 26 2 26 -4 0 -5 -9 -10 -20 -10 -28 0
-25 -12 10 -35 16 -11 30 -27 29 -35 0 -10 -2 -11 -6 -2 -2 6 -11 12 -19 12
-8 0 -14 7 -14 15 0 18 -36 20 -46 3 -4 -7 -3 -8 5 -4 14 9 43 -12 35 -25 -3
-5 2 -9 10 -9 9 0 16 -4 16 -9 0 -4 -14 -7 -32 -5 -33 4 -56 -15 -35 -28 19
-12 27 -9 21 7 -5 11 -2 13 10 9 11 -4 15 -13 10 -26 -5 -16 -3 -19 7 -12 11
6 12 5 2 -8 -7 -8 -9 -18 -5 -23 4 -4 -3 -3 -15 4 -12 6 -24 7 -27 2 -3 -5 1
-12 10 -15 15 -6 15 -8 -1 -26 -10 -11 -15 -20 -11 -20 9 0 27 18 49 50 15 22
17 22 17 5 1 -19 1 -19 11 -1 9 15 13 16 20 5 6 -10 9 -4 9 18 0 17 -3 33 -7
36 -5 2 -2 2 5 1 6 -2 12 2 13 9 0 7 2 20 4 29 2 10 -7 21 -26 28 -27 12 -41
40 -19 40 6 0 10 -4 10 -10 0 -5 7 -7 15 -4 8 4 15 10 15 16 0 5 -4 6 -10 3
-17 -10 -11 11 9 37 24 30 13 60 -13 39 -15 -12 -20 -8 -17 12 0 4 -4 7 -10 7
-5 0 -8 4 -5 9 3 5 15 7 26 4 12 -3 20 0 20 7 0 7 -6 10 -14 7 -8 -3 -17 1
-20 9 -6 16 -26 19 -26 4z m20 -80 c0 -5 -5 -10 -11 -10 -5 0 -7 5 -4 10 3 6
8 10 11 10 2 0 4 -4 4 -10z"/>
<path d="M1926 2567 c3 -10 9 -15 12 -12 3 3 0 11 -7 18 -10 9 -11 8 -5 -6z"/>
<path d="M549 2533 c-5 -14 -7 -33 -4 -40 7 -20 28 -4 22 17 -2 9 0 25 5 34 6
10 5 16 -2 16 -6 0 -15 -12 -21 -27z"/>
<path d="M2125 2550 c3 -5 8 -10 11 -10 2 0 4 5 4 10 0 6 -5 10 -11 10 -5 0
-7 -4 -4 -10z"/>
<path d="M841 2545 c0 -18 28 -61 29 -44 0 8 -7 24 -15 35 -8 10 -14 15 -14 9z"/>
<path d="M755 2530 c4 -6 11 -8 16 -5 14 9 11 15 -7 15 -8 0 -12 -5 -9 -10z"/>
<path d="M2086 2521 c-4 -5 -2 -12 3 -15 5 -4 12 -2 15 3 4 5 2 12 -3 15 -5 4
-12 2 -15 -3z"/>
<path d="M2016 2476 c18 -14 18 -15 2 -21 -10 -4 -25 -5 -33 -1 -8 3 -15 0
-15 -6 0 -7 -5 -6 -15 2 -8 7 -15 9 -15 4 1 -13 30 -50 30 -38 0 5 5 2 10 -6
9 -13 10 -13 10 0 0 13 1 13 10 0 8 -13 10 -12 10 3 0 9 6 17 14 17 7 0 20 8
27 18 13 16 13 16 -5 2 -18 -14 -19 -13 -14 1 7 17 -8 39 -26 39 -5 0 -1 -6
10 -14z"/>
<path d="M500 2470 c0 -5 5 -10 10 -10 6 0 10 5 10 10 0 6 -4 10 -10 10 -5 0
-10 -4 -10 -10z"/>
<path d="M527 2463 c-10 -9 -8 -33 2 -33 5 0 11 9 14 20 5 20 -3 26 -16 13z"/>
<path d="M830 2392 c0 -12 -4 -22 -9 -22 -5 0 -8 -11 -7 -25 5 -43 13 -38 20
11 3 26 4 50 1 52 -3 3 -5 -4 -5 -16z"/>
<path d="M1970 2329 c0 -6 -7 -9 -14 -6 -11 4 -13 1 -9 -10 4 -11 2 -14 -5 -9
-7 4 -10 -1 -7 -14 2 -11 0 -20 -6 -20 -5 0 -9 -7 -9 -15 0 -8 5 -15 10 -15 6
0 10 5 10 10 0 6 11 10 25 10 27 0 32 9 13 28 -10 10 -10 17 0 32 7 12 8 20 2
20 -5 0 -10 -5 -10 -11z"/>
<path d="M460 2248 c0 -9 5 -20 10 -23 13 -8 13 5 0 25 -8 13 -10 13 -10 -2z"/>
<path d="M2524 2242 c-19 -13 -22 -37 -6 -52 14 -13 15 -12 9 3 -3 9 -3 16 1
16 20 -3 30 3 34 19 5 19 -19 27 -38 14z"/>
<path d="M590 2231 c0 -6 5 -13 10 -16 6 -3 10 1 10 9 0 9 -4 16 -10 16 -5 0
-10 -4 -10 -9z"/>
<path d="M450 2146 c0 -42 4 -66 12 -68 23 -8 35 15 27 52 -21 100 -39 108
-39 16z"/>
<path d="M2539 2180 c-19 -16 -28 -29 -21 -30 8 0 10 -5 6 -12 -5 -10 -4 -10
6 -1 7 6 19 9 26 6 10 -4 12 0 8 11 -3 9 -1 23 6 31 23 28 4 25 -31 -5z"/>
<path d="M760 2171 c-6 -11 -6 -22 -1 -25 5 -3 11 5 13 19 6 30 2 32 -12 6z"/>
<path d="M710 2149 c0 -5 5 -7 10 -4 6 3 10 8 10 11 0 2 -4 4 -10 4 -5 0 -10
-5 -10 -11z"/>
<path d="M2214 2105 c1 -72 16 -72 16 0 0 30 -4 55 -9 55 -5 0 -8 -25 -7 -55z"/>
<path d="M844 2101 c0 -18 5 -27 13 -24 7 3 12 8 11 11 -2 23 4 30 25 25 18
-4 19 -3 7 6 -8 6 -25 11 -36 11 -17 0 -21 -6 -20 -29z"/>
<path d="M2082 2110 c7 -11 16 -20 21 -20 4 0 3 9 -3 20 -6 11 -15 20 -20 20
-6 0 -5 -9 2 -20z"/>
<path d="M2540 2119 c0 -5 5 -7 10 -4 6 3 10 8 10 11 0 2 -4 4 -10 4 -5 0 -10
-5 -10 -11z"/>
<path d="M798 2063 c7 -3 16 -2 19 1 4 3 -2 6 -13 5 -11 0 -14 -3 -6 -6z"/>
<path d="M856 2061 c-4 -5 -2 -12 3 -15 5 -4 12 -2 15 3 4 5 2 12 -3 15 -5 4
-12 2 -15 -3z"/>
<path d="M2555 2050 c-3 -6 1 -7 9 -4 18 7 21 14 7 14 -6 0 -13 -4 -16 -10z"/>
<path d="M2520 2029 c0 -5 5 -7 10 -4 6 3 10 8 10 11 0 2 -4 4 -10 4 -5 0 -10
-5 -10 -11z"/>
<path d="M1144 1922 c3 -5 0 -13 -6 -15 -9 -4 -10 -6 -1 -6 17 -1 25 16 12 25
-7 4 -9 3 -5 -4z"/>
<path d="M816 1820 c-15 -5 -16 -9 -7 -14 7 -5 18 -3 24 3 14 14 6 20 -17 11z"/>
<path d="M2480 1800 c-9 -6 -10 -10 -3 -10 6 0 15 5 18 10 8 12 4 12 -15 0z"/>
<path d="M1800 1776 c0 -7 8 -20 18 -27 14 -11 15 -11 5 1 -16 18 -17 34 -1
24 7 -4 8 -3 4 4 -10 16 -26 15 -26 -2z"/>
<path d="M2000 1746 c0 -2 8 -10 18 -17 15 -13 16 -12 3 4 -13 16 -21 21 -21
13z"/>
<path d="M1820 1721 c0 -5 -3 -16 -6 -25 -3 -9 -2 -16 4 -16 5 0 12 11 14 25
3 14 1 25 -3 25 -5 0 -9 -4 -9 -9z"/>
<path d="M1925 1690 c-19 -8 -19 -9 3 -9 12 -1 22 4 22 9 0 6 -1 10 -2 9 -2 0
-12 -4 -23 -9z"/>
<path d="M1965 1690 c3 -5 10 -10 16 -10 5 0 9 5 9 10 0 6 -7 10 -16 10 -8 0
-12 -4 -9 -10z"/>
<path d="M2023 1664 c-7 -7 -9 -15 -4 -18 5 -3 14 1 20 8 15 18 0 28 -16 10z"/>
<path d="M2190 1669 c0 -5 5 -7 10 -4 6 3 10 8 10 11 0 2 -4 4 -10 4 -5 0 -10
-5 -10 -11z"/>
<path d="M2255 1660 c3 -5 8 -10 11 -10 2 0 4 5 4 10 0 6 -5 10 -11 10 -5 0
-7 -4 -4 -10z"/>
<path d="M1921 1584 c0 -11 3 -14 6 -6 3 7 2 16 -1 19 -3 4 -6 -2 -5 -13z"/>
<path d="M630 1580 c0 -6 7 -10 15 -10 8 0 15 2 15 4 0 2 -7 6 -15 10 -8 3
-15 1 -15 -4z"/>
<path d="M3820 1564 c0 -8 -7 -14 -15 -14 -8 0 -15 -5 -15 -11 0 -5 4 -8 9 -4
5 3 16 -1 24 -9 8 -8 17 -12 21 -9 3 4 6 2 6 -3 0 -6 -5 -15 -11 -21 -7 -7 -7
-13 -1 -17 8 -4 32 70 32 97 0 1 -11 3 -25 3 -15 1 -25 -3 -25 -12z"/>
<path d="M576 1554 c-6 -15 -4 -15 11 -3 10 7 20 15 22 16 2 2 -3 3 -11 3 -9
0 -19 -7 -22 -16z"/>
<path d="M1835 1530 c-4 -6 7 -24 24 -41 17 -17 31 -35 31 -40 0 -6 5 -7 10
-4 6 3 10 2 10 -4 0 -5 10 -11 23 -13 14 -2 21 -9 21 -20 -1 -10 2 -15 7 -12
5 3 9 0 9 -6 0 -6 11 -4 25 6 18 12 22 20 15 29 -5 6 -7 15 -3 18 3 4 -5 17
-18 29 -13 13 -23 32 -22 43 2 16 1 15 -7 -4 -9 -19 -13 -21 -25 -11 -9 7 -18
10 -22 6 -3 -3 -1 -6 5 -6 19 0 14 -17 -7 -23 -26 -6 -33 1 -20 24 8 17 6 19
-21 19 -18 0 -29 4 -25 10 3 6 4 10 1 10 -3 0 -8 -5 -11 -10z"/>
<path d="M3381 1518 c-10 -27 -5 -36 10 -21 6 6 18 9 26 6 13 -5 13 -2 4 15
-15 28 -29 28 -40 0z"/>
<path d="M555 1520 c-3 -5 1 -10 10 -10 9 0 13 5 10 10 -3 6 -8 10 -10 10 -2
0 -7 -4 -10 -10z"/>
<path d="M2013 1510 c-8 -18 -7 -27 1 -32 12 -8 20 13 13 40 -3 14 -6 12 -14
-8z"/>
<path d="M2220 1491 c0 -25 6 -27 13 -6 4 8 2 17 -3 20 -6 4 -10 -3 -10 -14z"/>
<path d="M546 1491 c-3 -5 1 -11 9 -14 9 -4 12 -1 8 9 -6 16 -10 17 -17 5z"/>
<path d="M3591 1481 c-7 -12 -12 -12 -23 -4 -14 12 -48 0 -36 -12 3 -4 -2 -15
-13 -26 -11 -11 -17 -24 -14 -29 14 -22 14 -49 0 -44 -8 3 -16 -4 -20 -16 -4
-13 -12 -19 -21 -16 -9 3 -29 -9 -49 -29 -34 -33 -46 -53 -25 -40 6 3 10 0 10
-9 0 -14 -33 -49 -90 -95 -21 -17 -22 -20 -7 -21 25 0 152 84 202 134 22 22
46 41 53 42 8 2 17 6 20 10 4 4 -1 4 -10 1 -19 -7 -25 8 -8 18 6 4 9 14 8 22
-2 9 2 18 9 20 8 3 12 -9 11 -39 -1 -33 -7 -48 -27 -65 -19 -16 -22 -22 -10
-23 8 0 20 5 27 12 9 9 12 9 12 -2 -1 -18 -80 -99 -80 -82 0 6 -7 12 -15 12
-18 0 -19 -12 -3 -28 9 -9 9 -12 0 -12 -7 0 -12 -7 -12 -16 0 -8 -6 -22 -14
-30 -10 -9 -12 -26 -9 -54 4 -31 2 -41 -11 -46 -26 -10 -18 -20 13 -18 24 2
29 -2 28 -18 -1 -17 -3 -17 -13 -4 -12 17 -29 22 -19 7 3 -6 -3 -15 -14 -20
-26 -15 -71 -14 -71 1 0 6 -2 9 -5 6 -9 -8 6 -38 16 -32 12 7 11 -17 -1 -36
-8 -13 -10 -12 -10 3 0 9 -4 17 -10 17 -5 0 -10 -7 -10 -16 0 -9 -5 -12 -12
-8 -7 4 -8 3 -4 -4 4 -7 12 -12 17 -12 6 0 26 -17 46 -37 19 -21 42 -37 49
-35 8 2 14 -5 14 -15 1 -22 19 -48 40 -56 12 -4 11 -6 -2 -6 -12 -1 -18 -9
-18 -26 0 -21 3 -23 23 -16 18 6 44 7 89 2 6 -1 -8 -32 -29 -70 -2 -2 -9 2
-18 9 -22 19 -54 -12 -47 -46 3 -17 0 -24 -8 -22 -7 2 -15 -3 -18 -11 -3 -10
0 -12 11 -8 9 3 19 2 22 -2 4 -8 92 12 103 24 3 2 6 33 7 67 3 46 9 69 23 85
11 13 17 23 12 23 -17 0 25 79 44 82 11 2 21 9 24 17 3 8 0 11 -7 7 -6 -4 -11
-1 -11 6 1 18 26 49 33 41 4 -3 7 1 7 9 0 20 59 71 75 64 8 -3 11 4 9 19 -1
18 2 22 14 18 11 -5 14 -2 9 10 -4 11 -2 14 9 10 7 -3 14 0 14 6 0 6 -5 11
-11 11 -5 0 -7 5 -4 10 3 6 -1 10 -9 10 -9 0 -16 -5 -16 -11 0 -5 -5 -7 -11
-4 -6 4 -8 13 -5 21 3 8 1 14 -4 14 -6 0 -10 5 -10 11 0 5 5 7 10 4 6 -3 10 1
10 10 0 9 -4 13 -10 10 -16 -10 -11 10 8 32 9 11 23 18 30 16 8 -3 10 1 6 12
-6 14 -8 14 -24 0 -24 -22 -45 -19 -58 10 -10 21 -9 23 6 18 14 -6 15 -4 4 9
-9 12 -10 18 -2 23 6 4 9 14 6 22 -4 9 -1 22 5 29 6 7 9 32 6 54 -2 22 -1 40
4 40 5 0 4 11 -1 25 -7 20 -6 25 5 25 17 0 19 9 6 29 -7 10 -13 11 -27 2 -11
-6 -13 -11 -6 -11 17 0 15 -16 -5 -36 -10 -10 -19 -22 -19 -28 -1 -6 -2 -17
-3 -23 -1 -16 -31 -17 -31 -1 0 12 -15 2 -15 -10 0 -4 -4 -13 -8 -19 -5 -8 -4
-13 2 -13 6 0 11 5 11 10 0 6 9 10 21 10 18 0 19 -2 5 -15 -19 -19 -40 -19
-56 0 -9 11 -22 14 -43 9 -25 -5 -29 -4 -24 11 4 9 7 18 7 20 0 2 12 -3 28
-11 27 -14 50 -19 39 -8 -8 8 25 44 35 38 4 -3 8 -1 8 5 0 17 -20 23 -34 12
-11 -9 -18 -8 -29 4 -20 19 -37 19 -37 1 0 -8 -4 -18 -10 -21 -6 -3 -7 1 -4 9
6 15 -6 21 -31 16 -5 -1 -6 2 -2 7 5 4 17 9 28 9 10 1 27 2 37 3 31 2 66 38
56 58 -7 16 -8 16 -11 -4 -5 -27 -33 -31 -33 -5 -1 15 -2 15 -15 -2 -14 -18
-20 -13 -17 15 2 13 -29 5 -37 -10z m145 -333 c4 -7 4 -10 -1 -6 -4 4 -14 3
-22 -3 -13 -11 -19 2 -6 14 10 11 21 8 29 -5z m-46 -258 c0 -5 -4 -10 -10 -10
-5 0 -10 5 -10 10 0 6 5 10 10 10 6 0 10 -4 10 -10z"/>
<path d="M3735 1469 c-4 -6 -5 -12 -2 -15 2 -3 7 2 10 11 7 17 1 20 -8 4z"/>
<path d="M545 1451 c-3 -5 -1 -12 5 -16 5 -3 10 1 10 9 0 18 -6 21 -15 7z"/>
<path d="M2368 1443 c-4 -14 0 -24 8 -27 15 -6 16 -1 5 28 -7 19 -8 19 -13 -1z"/>
<path d="M514 1433 c2 -9 8 -18 15 -19 6 -1 7 0 1 3 -5 2 -8 9 -5 13 3 5 1 11
-4 14 -5 4 -8 -2 -7 -11z"/>
<path d="M635 1440 c3 -5 8 -10 11 -10 2 0 4 5 4 10 0 6 -5 10 -11 10 -5 0 -7
-4 -4 -10z"/>
<path d="M3348 1438 c-22 -18 -31 -48 -14 -48 8 0 13 8 12 18 0 10 5 16 15 14
9 -1 22 5 29 13 10 12 9 15 -7 15 -10 0 -26 -6 -35 -12z"/>
<path d="M585 1431 c-3 -6 3 -15 12 -21 16 -10 16 -11 -4 -7 -13 3 -26 1 -29
-4 -3 -5 -10 -7 -15 -4 -15 10 -10 -12 6 -25 20 -16 14 -34 -11 -36 -66 -3
-64 -1 -48 -34 9 -16 19 -32 25 -35 5 -4 9 -11 9 -16 0 -6 -4 -7 -10 -4 -6 3
-7 -1 -3 -10 4 -11 8 -13 13 -6 4 8 12 5 24 -8 10 -11 15 -24 11 -30 -3 -6 0
-8 8 -5 8 3 18 1 22 -5 9 -15 21 -14 39 4 9 9 17 11 21 5 3 -5 1 -10 -4 -10
-17 0 -13 -17 5 -24 8 -3 13 -2 10 3 -5 8 5 34 29 71 5 8 8 27 6 42 -1 15 5
38 13 50 18 26 21 66 5 88 -8 12 -9 10 -4 -7 8 -28 -10 -63 -32 -63 -12 0 -14
3 -6 11 8 8 -1 22 -32 50 -45 42 -51 44 -60 30z"/>
<path d="M660 1415 c0 -2 10 -10 23 -16 20 -11 21 -11 8 4 -13 16 -31 23 -31
12z"/>
<path d="M1047 1409 c7 -7 15 -10 18 -7 3 3 -2 9 -12 12 -14 6 -15 5 -6 -5z"/>
<path d="M515 1381 c-3 -5 -1 -12 5 -16 5 -3 10 1 10 9 0 18 -6 21 -15 7z"/>
<path d="M2190 1380 c0 -5 4 -10 10 -10 5 0 7 -8 3 -17 -4 -14 -3 -15 6 -7 6
6 9 18 5 27 -7 18 -24 23 -24 7z"/>
<path d="M1084 1365 c-16 -13 -16 -14 -1 -9 25 9 20 -8 -8 -29 -24 -17 -25
-17 -45 3 -12 12 -26 17 -36 13 -12 -4 -15 -3 -10 5 4 7 1 12 -10 12 -14 0
-14 -2 -3 -16 10 -13 10 -17 -1 -24 -8 -5 -11 -12 -8 -16 4 -4 1 -15 -6 -26
-18 -26 -1 -99 25 -105 17 -5 17 -6 2 -22 -17 -16 -20 -17 -50 -20 -15 -1 -15
-3 -4 -10 8 -5 20 -7 27 -4 7 2 22 0 33 -7 18 -9 21 -8 21 7 0 12 8 18 26 20
14 0 31 7 38 13 8 10 6 12 -11 7 -20 -4 -21 -3 -12 14 5 10 17 19 25 19 8 0
13 4 9 10 -3 5 -12 7 -21 3 -12 -4 -13 -1 -4 22 5 14 10 42 10 62 0 26 5 36
19 40 10 3 21 16 24 29 5 28 -2 30 -29 9z"/>
<path d="M3841 1344 c0 -11 3 -14 6 -6 3 7 2 16 -1 19 -3 4 -6 -2 -5 -13z"/>
<path d="M1806 1331 c-3 -5 1 -12 10 -15 8 -3 12 -11 8 -17 -3 -6 0 -15 7 -20
9 -6 10 -9 2 -9 -6 0 -19 10 -27 22 -9 12 -19 19 -22 15 -4 -4 5 -16 20 -28
20 -16 24 -24 16 -34 -8 -9 -7 -14 4 -18 18 -7 26 1 26 28 0 11 5 26 12 33 7
7 8 12 2 12 -6 0 -20 9 -32 20 -11 11 -23 16 -26 11z"/>
<path d="M2077 1333 c-10 -9 -9 -23 1 -23 5 0 9 7 9 15 0 17 -1 18 -10 8z"/>
<path d="M2205 1300 c-3 -5 1 -17 9 -26 9 -8 16 -21 16 -27 0 -6 7 -1 16 11 8
12 13 28 11 35 -3 7 -6 5 -6 -5 -1 -10 -6 -18 -12 -18 -5 0 -8 4 -5 9 3 5 -1
14 -8 20 -10 8 -16 9 -21 1z"/>
<path d="M1761 1284 c0 -11 3 -14 6 -6 3 7 2 16 -1 19 -3 4 -6 -2 -5 -13z"/>
<path d="M3348 1293 c6 -2 18 -2 25 0 6 3 1 5 -13 5 -14 0 -19 -2 -12 -5z"/>
<path d="M2076 1257 c3 -10 9 -15 12 -12 3 3 0 11 -7 18 -10 9 -11 8 -5 -6z"/>
<path d="M1753 1199 c-1 -43 1 -49 18 -49 11 0 18 4 15 9 -9 15 5 41 21 41 14
0 14 2 1 23 -9 12 -24 22 -35 23 -16 1 -19 -6 -20 -47z"/>
<path d="M1863 1233 c-26 -18 -30 -33 -8 -33 8 0 15 6 15 14 0 8 6 16 13 19 6
2 10 7 7 10 -3 2 -15 -2 -27 -10z"/>
<path d="M694 1219 c-4 -7 -1 -10 7 -7 8 3 20 -2 28 -9 7 -8 16 -11 19 -8 6 5
-27 34 -40 35 -4 0 -10 -5 -14 -11z"/>
<path d="M2205 1200 c4 -6 11 -8 16 -5 14 9 11 15 -7 15 -8 0 -12 -5 -9 -10z"/>
<path d="M3891 1194 c0 -11 3 -14 6 -6 3 7 2 16 -1 19 -3 4 -6 -2 -5 -13z"/>
<path d="M1680 1185 c0 -8 2 -15 4 -15 2 0 6 7 10 15 3 8 1 15 -4 15 -6 0 -10
-7 -10 -15z"/>
<path d="M1548 1151 c-2 -17 -1 -28 3 -26 10 7 18 55 9 55 -4 0 -10 -13 -12
-29z"/>
<path d="M2025 1170 c-3 -5 -1 -10 4 -10 6 0 11 5 11 10 0 6 -2 10 -4 10 -3 0
-8 -4 -11 -10z"/>
<path d="M586 1162 c-10 -9 -7 -32 5 -32 5 0 7 5 3 12 -4 6 -3 8 2 5 6 -3 16
-2 23 2 9 6 7 10 -8 14 -11 2 -22 2 -25 -1z"/>
<path d="M2261 1150 c0 -8 4 -22 9 -30 12 -18 12 -2 0 25 -6 13 -9 15 -9 5z"/>
<path d="M610 1129 c0 -5 5 -7 10 -4 6 3 10 8 10 11 0 2 -4 4 -10 4 -5 0 -10
-5 -10 -11z"/>
<path d="M1690 1127 c0 -8 7 -17 15 -21 8 -3 15 -3 15 0 0 3 -7 12 -15 20 -13
13 -15 13 -15 1z"/>
<path d="M1770 1130 c0 -5 5 -10 10 -10 6 0 10 5 10 10 0 6 -4 10 -10 10 -5 0
-10 -4 -10 -10z"/>
<path d="M650 1115 c0 -18 26 -20 33 -2 3 6 6 2 6 -11 1 -13 5 -20 11 -17 6 3
10 1 10 -4 0 -6 4 -11 8 -11 5 0 9 14 9 30 0 28 -3 30 -39 30 -27 0 -38 -4
-38 -15z"/>
<path d="M651 1078 c-2 -25 -41 -44 -53 -27 -6 10 -7 6 -3 -10 4 -13 3 -21 -2
-18 -20 12 -35 -12 -37 -57 -1 -31 -5 -45 -13 -42 -7 3 -10 -1 -6 -9 3 -11 10
-12 23 -5 22 12 32 47 15 54 -8 3 -11 13 -8 26 4 15 11 19 24 15 12 -4 19 -2
19 7 0 7 11 0 24 -17 20 -24 26 -27 39 -17 8 7 30 11 48 10 25 -2 34 1 37 15
2 10 -3 17 -13 17 -9 0 -14 -4 -11 -9 4 -5 -7 -4 -24 2 -29 11 -41 27 -20 27
6 0 10 5 10 10 0 6 -3 9 -7 9 -21 -3 -32 3 -36 19 -4 16 -5 16 -6 0z"/>
<path d="M3850 1086 c0 -2 8 -10 18 -17 15 -13 16 -12 3 4 -13 16 -21 21 -21
13z"/>
<path d="M1054 1059 c-3 -6 -1 -16 6 -22 10 -9 11 -9 6 1 -4 6 -2 12 3 12 6 0
11 5 11 10 0 13 -17 13 -26 -1z"/>
<path d="M1262 1039 c-11 -17 -20 -20 -48 -14 -33 6 -36 4 -47 -24 -6 -17 -19
-33 -27 -36 -30 -10 -11 -84 21 -85 4 0 12 6 18 14 10 12 8 14 -11 9 -20 -4
-21 -3 -7 9 9 7 14 19 12 26 -3 7 4 12 15 12 11 0 23 7 26 16 4 10 2 13 -6 8
-7 -4 -8 -3 -4 4 4 7 2 12 -5 12 -7 0 -10 3 -7 6 4 3 16 1 27 -6 16 -8 21 -8
21 2 0 9 3 9 10 -2 13 -20 13 -43 0 -35 -6 4 -8 -6 -6 -24 2 -17 -1 -31 -5
-31 -5 0 -9 -9 -9 -20 0 -10 -7 -23 -15 -28 -16 -8 -11 -42 5 -42 5 0 6 -16 3
-35 -4 -24 -2 -35 7 -35 7 0 10 7 6 16 -3 8 4 36 16 62 12 26 21 53 19 60 -4
22 27 25 56 5 55 -37 83 -47 95 -35 8 8 6 9 -10 5 -14 -3 -24 2 -31 16 -7 12
-18 21 -27 21 -8 0 -17 7 -20 15 -4 10 -13 13 -24 10 -14 -4 -19 1 -22 25 -4
26 -2 29 13 25 15 -5 18 -1 16 23 -1 19 -7 28 -14 25 -7 -3 -13 0 -13 6 0 6 5
11 11 11 8 0 8 5 -1 15 -17 20 -23 19 -38 -6z"/>
<path d="M433 1035 c0 -6 15 -12 34 -12 30 -1 50 16 21 18 -7 0 -22 2 -34 3
-11 1 -21 -3 -21 -9z"/>
<path d="M560 1040 c0 -5 5 -10 10 -10 6 0 10 5 10 10 0 6 -4 10 -10 10 -5 0
-10 -4 -10 -10z"/>
<path d="M1750 1040 c0 -5 5 -10 11 -10 5 0 7 5 4 10 -3 6 -8 10 -11 10 -2 0
-4 -4 -4 -10z"/>
<path d="M520 1032 c0 -5 7 -13 16 -16 10 -4 14 -1 12 6 -5 15 -28 23 -28 10z"/>
<path d="M1040 1011 c0 -13 30 -35 37 -27 4 4 1 11 -6 15 -11 7 -11 10 0 14 8
3 4 6 -8 6 -13 1 -23 -3 -23 -8z"/>
<path d="M1766 985 c4 -8 9 -15 13 -15 4 0 8 7 8 15 0 8 -6 15 -13 15 -8 0
-11 -6 -8 -15z"/>
<path d="M1934 987 c-3 -9 1 -29 9 -44 19 -35 31 -66 29 -75 -3 -11 20 -10 37
1 17 11 7 41 -13 41 -9 0 -13 6 -10 13 2 7 -7 28 -21 46 -19 27 -26 31 -31 18z"/>
<path d="M2000 990 c0 -5 5 -10 11 -10 5 0 7 5 4 10 -3 6 -8 10 -11 10 -2 0
-4 -4 -4 -10z"/>
<path d="M2050 980 c-13 -8 -12 -10 3 -10 9 0 17 5 17 10 0 12 -1 12 -20 0z"/>
<path d="M1040 960 c0 -5 7 -10 15 -10 8 0 15 5 15 10 0 6 -7 10 -15 10 -8 0
-15 -4 -15 -10z"/>
<path d="M3830 929 c0 -11 5 -17 10 -14 6 3 10 13 10 21 0 8 -4 14 -10 14 -5
0 -10 -9 -10 -21z"/>
<path d="M1048 933 c7 -3 16 -2 19 1 4 3 -2 6 -13 5 -11 0 -14 -3 -6 -6z"/>
<path d="M1040 899 c0 -5 5 -7 10 -4 6 3 10 8 10 11 0 2 -4 4 -10 4 -5 0 -10
-5 -10 -11z"/>
<path d="M3760 894 c0 -8 5 -12 10 -9 6 4 8 11 5 16 -9 14 -15 11 -15 -7z"/>
<path d="M1190 880 c0 -5 5 -10 10 -10 6 0 10 5 10 10 0 6 -4 10 -10 10 -5 0
-10 -4 -10 -10z"/>
<path d="M1120 870 c0 -5 4 -10 9 -10 6 0 13 5 16 10 3 6 -1 10 -9 10 -9 0
-16 -4 -16 -10z"/>
<path d="M3330 861 c0 -6 5 -13 10 -16 6 -3 10 1 10 9 0 9 -4 16 -10 16 -5 0
-10 -4 -10 -9z"/>
<path d="M530 850 c0 -5 5 -10 10 -10 6 0 10 5 10 10 0 6 -4 10 -10 10 -5 0
-10 -4 -10 -10z"/>
<path d="M1934 846 c-6 -17 2 -36 17 -36 12 0 12 37 -1 45 -6 3 -13 -1 -16 -9z"/>
<path d="M1093 821 c1 -11 10 -24 20 -27 28 -9 29 0 2 26 -24 22 -24 22 -22 1z"/>
<path d="M3750 830 c0 -13 18 -22 24 -11 3 5 -1 11 -9 15 -8 3 -15 1 -15 -4z"/>
<path d="M3840 829 c0 -6 -10 -8 -22 -5 -13 3 -17 3 -10 0 6 -3 12 -11 12 -17
0 -6 8 -19 18 -30 16 -19 16 -20 -5 -8 -13 6 -24 7 -27 2 -4 -5 0 -12 6 -14 7
-3 2 -6 -12 -7 l-25 -1 23 -11 c12 -6 22 -17 22 -24 0 -7 6 -14 13 -17 6 -2 9
-8 5 -12 -4 -4 -15 -2 -25 6 -15 13 -15 12 -6 -5 12 -21 6 -56 -9 -56 -5 0 -2
-7 7 -16 11 -12 13 -20 5 -29 -8 -9 -4 -11 15 -7 17 3 24 9 21 18 -3 8 -1 14
4 14 6 0 10 -7 10 -15 0 -8 5 -15 11 -15 5 0 7 5 4 10 -3 6 1 10 9 10 9 0 16
5 16 10 0 6 -11 10 -24 10 -14 0 -28 5 -31 10 -4 6 -11 8 -16 5 -5 -4 -9 1 -9
9 0 9 7 16 15 16 8 0 15 7 15 15 0 18 12 19 28 3 9 -9 12 -9 12 -1 0 7 -9 15
-20 18 -22 7 -27 25 -7 25 8 0 7 4 -3 10 -12 8 -10 10 8 10 13 0 20 4 17 10
-4 6 -10 8 -15 5 -11 -7 -25 60 -15 74 3 6 1 11 -4 11 -6 0 -11 -5 -11 -11z"/>
<path d="M3375 820 c3 -5 8 -10 11 -10 2 0 4 5 4 10 0 6 -5 10 -11 10 -5 0 -7
-4 -4 -10z"/>
<path d="M1447 803 c-10 -9 -9 -23 2 -23 5 0 11 7 15 15 5 15 -5 20 -17 8z"/>
<path d="M3888 803 c7 -3 16 -2 19 1 4 3 -2 6 -13 5 -11 0 -14 -3 -6 -6z"/>
<path d="M1907 769 c-4 -16 -3 -18 9 -8 16 13 19 29 5 29 -5 0 -11 -9 -14 -21z"/>
<path d="M3364 772 c0 -10 -5 -16 -13 -14 -12 3 -12 0 -1 -12 14 -18 25 -22
15 -6 -3 6 -1 10 4 10 13 0 15 27 2 34 -5 3 -8 -2 -7 -12z"/>
<path d="M1080 769 c0 -5 5 -7 10 -4 6 3 10 8 10 11 0 2 -4 4 -10 4 -5 0 -10
-5 -10 -11z"/>
<path d="M1112 756 c4 -21 2 -26 -9 -22 -8 3 -11 1 -8 -4 3 -6 14 -10 24 -10
14 0 17 6 13 25 -2 14 -9 28 -15 32 -6 4 -8 -4 -5 -21z"/>
<path d="M1810 770 c0 -5 5 -10 11 -10 5 0 7 5 4 10 -3 6 -8 10 -11 10 -2 0
-4 -4 -4 -10z"/>
<path d="M3678 773 c7 -3 16 -2 19 1 4 3 -2 6 -13 5 -11 0 -14 -3 -6 -6z"/>
<path d="M3330 720 c-9 -6 -10 -10 -3 -10 6 0 15 5 18 10 8 12 4 12 -15 0z"/>
<path d="M1074 705 c-3 -8 -4 -20 -2 -27 3 -7 7 -1 10 15 6 29 1 36 -8 12z"/>
<path d="M1240 700 c0 -5 5 -10 10 -10 6 0 10 5 10 10 0 6 -4 10 -10 10 -5 0
-10 -4 -10 -10z"/>
<path d="M1225 666 c-15 -11 -17 -17 -7 -28 6 -8 9 -18 5 -22 -4 -3 -8 -17 -9
-29 -2 -17 0 -15 11 8 7 17 16 39 20 50 6 19 7 19 20 -5 10 -18 14 -20 15 -8
0 13 -24 48 -34 48 -1 0 -11 -6 -21 -14z"/>
<path d="M1114 659 c-3 -5 0 -18 8 -27 12 -15 11 -16 -4 -4 -10 8 -19 9 -22 3
-3 -5 -1 -11 6 -13 13 -5 20 -38 8 -38 -4 0 -6 -9 -3 -20 3 -11 0 -27 -7 -35
-9 -10 -9 -15 -1 -15 12 0 55 -40 44 -40 -5 0 0 -5 10 -11 10 -6 21 -8 24 -5
4 3 1 6 -7 6 -8 0 -9 4 -3 13 15 18 24 49 14 42 -16 -9 -22 12 -11 40 9 23 7
28 -9 32 -16 4 -18 11 -14 37 4 24 1 35 -11 39 -8 3 -18 2 -22 -4z m43 -85
c-3 -3 -12 -4 -19 -1 -8 3 -5 6 6 6 11 1 17 -2 13 -5z"/>
<path d="M3865 650 c3 -5 10 -10 16 -10 5 0 9 5 9 10 0 6 -7 10 -16 10 -8 0
-12 -4 -9 -10z"/>
<path d="M820 620 c0 -5 5 -10 11 -10 5 0 7 5 4 10 -3 6 -8 10 -11 10 -2 0 -4
-4 -4 -10z"/>
<path d="M940 590 c0 -5 5 -10 10 -10 6 0 10 5 10 10 0 6 -4 10 -10 10 -5 0
-10 -4 -10 -10z"/>
<path d="M1080 580 c0 -11 2 -20 4 -20 2 0 6 9 9 20 3 11 1 20 -4 20 -5 0 -9
-9 -9 -20z"/>
<path d="M3765 580 c3 -5 8 -10 11 -10 2 0 4 5 4 10 0 6 -5 10 -11 10 -5 0 -7
-4 -4 -10z"/>
<path d="M893 495 c-6 -19 -8 -35 -3 -35 8 0 23 60 17 67 -2 1 -8 -13 -14 -32z"/>
<path d="M910 479 c0 -5 5 -7 10 -4 6 3 10 8 10 11 0 2 -4 4 -10 4 -5 0 -10
-5 -10 -11z"/>
<path d="M1060 466 c0 -19 17 -29 25 -16 3 5 1 10 -5 10 -6 0 -8 5 -5 10 3 6
1 10 -4 10 -6 0 -11 -6 -11 -14z"/>
<path d="M1144 443 c3 -6 0 -13 -6 -16 -7 -2 -11 -7 -8 -10 3 -3 12 -2 20 3
13 8 13 11 1 22 -8 8 -11 8 -7 1z"/>
<path d="M1055 401 c1 -26 -1 -29 -16 -20 -30 15 -35 9 -10 -11 34 -29 53 -26
41 5 -8 20 -6 27 5 31 17 7 10 24 -9 24 -8 0 -12 -11 -11 -29z"/>
<path d="M1996 373 c-4 -5 -11 -8 -14 -9 -31 -5 -73 -18 -76 -23 -2 -3 23 -7
55 -8 53 -2 61 1 58 23 0 4 5 11 13 15 9 6 7 9 -8 9 -11 0 -24 -3 -28 -7z"/>
<path d="M1155 360 c-3 -5 -1 -10 4 -10 6 0 11 5 11 10 0 6 -2 10 -4 10 -3 0
-8 -4 -11 -10z"/>
</g>
</svg>
